PathFileType	4	(X/Y/Z)	TVC_9_BWA3_walk_RCNL2025.trc
DataRate	CameraRate	NumFrames	NumMarkers	Units	OrigDataRate	OrigDataStartFrame	OrigNumFrames
100	100	7	27	mm	100	384	438
Frame#	Time	R_Shoulder			L_Shoulder			C7			J_Notch			R_Elbow			L_Elbow			R_Wrist			L_Wrist			R_Asis			L_Asis			R_Psis			L_Psis			Sacral			Thoracic			Sternum			R_Thigh_Lateral			R_Knee_Lateral			R_Shank_Lateral			R_Ankle_Lateral			R_Heel			R_Toe			L_Thigh_Lateral			L_Knee_Lateral			L_Shank_Lateral			L_Ankle_Lateral			L_Heel			L_Toe		
		X1	Y1	Z1	X2	Y2	Z2	X3	Y3	Z3	X4	Y4	Z4	X5	Y5	Z5	X6	Y6	Z6	X7	Y7	Z7	X8	Y8	Z8	X9	Y9	Z9	X10	Y10	Z10	X11	Y11	Z11	X12	Y12	Z12	X13	Y13	Z13	X14	Y14	Z14	X15	Y15	Z15	X16	Y16	Z16	X17	Y17	Z17	X18	Y18	Z18	X19	Y19	Z19	X20	Y20	Z20	X21	Y21	Z21	X22	Y22	Z22	X23	Y23	Z23	X24	Y24	Z24	X25	Y25	Z25	X26	Y26	Z26	X27	Y27	Z27
384	3.83000000	1663.281738	1351.707031	4.781048	1629.460205	1376.501709	-384.713959	1595.492920	1428.234131	-191.814453	1752.558472	1332.606445	-192.156113	1587.654785	1024.941895	85.439255	1654.258667	1067.299805	-535.209839	1641.577515	781.529388	65.145731	1844.713745	926.400879	-592.857025	1707.397095	917.055054	-53.423241	1683.797485	925.330994	-352.707062	1506.103027	939.314758	-137.235016	1496.612793	938.144836	-239.146515	1501.357910	938.729797	-188.190765	1504.820679	1150.804688	-190.153305	1815.635498	1146.889160	-200.039902	1752.596558	524.614502	2.033518	1758.920532	445.442596	-67.864426	1775.170166	286.842926	-30.313583	1745.039307	63.503620	-101.574028	1686.313232	51.277325	-160.837601	1870.707031	43.405323	-149.082153	1686.615479	551.290344	-398.995758	1633.753052	429.376495	-347.073364	1531.550415	329.305817	-390.610870	1359.218628	192.990143	-312.399780	1314.850952	223.026550	-254.862656	1404.285645	53.749474	-274.951355
385	3.84000000	1672.026978	1352.447510	5.206288	1638.360474	1376.933105	-384.297821	1604.163574	1428.913818	-191.507111	1761.304321	1333.452271	-191.607162	1601.405396	1025.030640	87.662209	1658.005371	1065.885376	-532.268433	1663.847229	783.507996	69.129547	1845.309875	920.854858	-589.466278	1716.253418	918.088806	-51.804451	1693.166992	925.669312	-351.182800	1515.163330	940.159058	-136.003113	1505.639526	938.197754	-237.678391	1510.401428	939.178406	-186.840752	1513.756348	1151.396118	-189.436722	1824.487183	1147.605957	-199.062775	1758.187988	524.418213	2.976938	1763.988159	445.266968	-67.061951	1777.983887	286.173645	-30.058826	1745.534302	63.502586	-101.470604	1686.577759	51.411465	-160.663406	1870.866699	43.492023	-149.155914	1705.725220	552.178284	-398.805176	1655.550171	429.980621	-347.163635	1552.129517	332.144928	-390.785248	1376.357666	200.056961	-312.884155	1332.764526	231.495758	-255.317947	1417.725952	58.851032	-275.638489
386	3.85000000	1680.805542	1353.288940	5.505901	1647.208496	1377.297607	-384.006744	1612.827515	1429.615723	-191.345551	1770.016113	1334.265747	-191.187225	1615.123291	1025.423096	90.008606	1661.784302	1064.425903	-529.198914	1686.260071	786.145874	73.139854	1845.572327	915.004395	-585.896332	1724.979248	919.059509	-50.267342	1702.270020	926.021362	-349.821503	1524.068359	941.055542	-134.743225	1514.545410	938.352783	-236.058762	1519.306885	939.704163	-185.400993	1522.611572	1152.038086	-188.725845	1833.212036	1148.241943	-198.264816	1763.154785	524.261353	3.964155	1768.497192	445.047363	-66.257500	1780.401245	285.519562	-29.735104	1745.944702	63.487041	-101.368507	1686.804443	51.502850	-160.508606	1870.988281	43.550285	-149.213013	1724.306030	553.553711	-398.535980	1677.310303	430.998779	-347.039459	1573.136475	334.992645	-390.854156	1394.628052	206.131714	-313.360291	1351.339478	238.379150	-255.784561	1433.964844	63.868752	-276.515137
387	3.86000000	1689.623657	1354.223877	5.687197	1655.995850	1377.600708	-383.828156	1621.485840	1430.334717	-191.312637	1778.694214	1335.042603	-190.890640	1628.817993	1026.117432	92.483803	1665.603394	1062.939941	-526.012390	1708.756958	789.452637	77.152903	1845.507935	908.898407	-582.144836	1733.580078	919.968201	-48.822491	1711.121094	926.390015	-348.627228	1532.822754	941.998779	-133.468231	1523.365356	938.623474	-234.329727	1528.094055	940.311127	-183.898979	1531.386963	1152.722290	-188.018524	1841.817139	1148.804932	-197.645615	1767.766235	524.180969	4.998144	1772.480591	444.798584	-65.457832	1782.514648	284.910889	-29.350248	1746.274780	63.456417	-101.269547	1686.992554	51.567047	-160.367111	1871.080688	43.560699	-149.249237	1742.258911	555.409058	-398.186615	1698.911377	432.462982	-346.696075	1594.453369	337.817139	-390.818787	1414.004395	211.011261	-313.826965	1370.554565	243.449173	-256.241943	1453.004028	68.486732	-277.579956
388	3.87000000	1698.484619	1355.243774	5.758960	1664.715576	1377.848145	-383.747955	1630.138916	1431.064575	-191.389725	1787.338623	1335.779053	-190.709686	1642.498779	1027.109131	95.090752	1669.467651	1061.446167	-522.721497	1731.280518	793.429626	81.144100	1845.125427	902.589905	-578.210876	1742.063232	920.817627	-47.476784	1719.740112	926.776306	-347.596924	1541.433472	942.981689	-132.192383	1532.132568	939.016907	-232.542709	1536.783020	940.999298	-182.367546	1540.083984	1153.438965	-187.313843	1850.311646	1149.304199	-197.198944	1772.179688	524.181396	6.064806	1775.984131	444.536224	-64.670563	1784.385864	284.366425	-28.914351	1746.531738	63.412663	-101.175781	1687.145264	51.617504	-160.235550	1871.151001	43.518433	-149.259888	1759.554077	557.695007	-397.749146	1720.258423	434.377258	-346.135620	1616.001099	340.554382	-390.680389	1434.456421	214.538818	-314.280487	1390.414551	246.554596	-256.673828	1474.737671	72.435631	-278.808289
389	3.88000000	1707.388428	1356.337891	5.731216	1673.361450	1378.045898	-383.751129	1638.785889	1431.797729	-191.557327	1795.949829	1336.471191	-190.634995	1656.173828	1028.389893	97.829834	1673.378052	1059.962646	-519.340332	1753.775513	798.069550	85.088465	1844.436462	896.135162	-574.095245	1750.437378	921.611084	-46.233486	1728.152222	927.178650	-346.721039	1549.909302	943.995422	-130.930862	1540.872925	939.532959	-230.754898	1545.391113	941.764191	-180.842880	1548.704956	1154.177124	-186.612061	1858.706299	1149.748901	-196.913528	1776.446899	524.245483	7.137540	1779.061646	444.274933	-63.903996	1786.051270	283.894745	-28.439156	1746.724243	63.359341	-101.089348	1687.268799	51.664848	-160.113434	1871.204590	43.428383	-149.241623	1776.223022	560.334290	-397.210022	1741.278442	436.718262	-345.366364	1637.736572	343.112701	-390.437805	1455.947510	216.612976	-314.711700	1410.941162	247.625153	-257.067566	1498.976074	75.523041	-280.155670
390	3.89000000	1716.331543	1357.493774	5.614972	1681.929321	1378.198975	-383.822296	1647.425049	1432.525391	-191.795807	1804.527588	1337.114990	-190.655853	1669.848755	1029.948608	100.698822	1677.332275	1058.505981	-515.883972	1776.189148	803.356262	88.961117	1843.455750	889.592651	-569.800995	1758.713501	922.351379	-45.092545	1736.385254	927.592407	-345.984589	1558.260498	945.029236	-129.699265	1549.597412	940.164246	-229.024460	1553.928955	942.596741	-179.361862	1557.252808	1154.925171	-185.914795	1867.012695	1150.146606	-196.773727	1780.548584	524.346802	8.184582	1781.771851	444.027100	-63.166759	1787.531860	283.496338	-27.937441	1746.862183	63.300793	-101.012245	1687.370850	51.716751	-160.002808	1871.245239	43.300789	-149.193146	1792.338989	563.238892	-396.551697	1761.914673	439.439545	-344.402435	1659.640381	345.388245	-390.087006	1478.433350	217.190964	-315.104095	1432.165649	246.668198	-257.410431	1525.473267	77.648148	-281.564972
